<?xml version="1.0" encoding="utf-8"?>
<!-- Generator: Adobe Illustrator 16.0.0, SVG Export Plug-In . SVG Version: 6.00 Build 0)  -->
<!DOCTYPE svg PUBLIC "-//W3C//DTD SVG 1.1//EN" "http://www.w3.org/Graphics/SVG/1.1/DTD/svg11.dtd">
<svg version="1.1" id="Layer_1" xmlns="http://www.w3.org/2000/svg" xmlns:xlink="http://www.w3.org/1999/xlink" x="0px" y="0px"
	 width="2004.094px" height="1417.323px" viewBox="0 0 2004.094 1417.323" enable-background="new 0 0 2004.094 1417.323"
	 xml:space="preserve">
<line fill="none" stroke="#000000" stroke-miterlimit="10" x1="1016.219" y1="1332.284" x2="1965.828" y2="1224.567"/>
<line fill="none" stroke="#CA2918" stroke-miterlimit="10" x1="1016.219" y1="1332.284" x2="1016.219" y2="198.424"/>
<line fill="none" stroke="#CA2918" stroke-miterlimit="10" x1="1809.92" y1="450.707" x2="1809.92" y2="1241.577"/>
<line fill="none" stroke="#CA2918" stroke-miterlimit="10" x1="1685.239" y1="493.227" x2="1685.423" y2="202.104"/>
<line fill="none" stroke="#000000" stroke-miterlimit="10" x1="1685.198" y1="558.425" x2="1685.239" y2="493.227"/>
<line fill="none" stroke="#000000" stroke-miterlimit="10" x1="1809.924" y1="450.707" x2="1809.923" y2="328.818"/>
<line fill="none" stroke="#CA2918" stroke-miterlimit="10" x1="1016.219" y1="198.424" x2="1679.528" y2="198.424"/>
<line fill="none" stroke="#000000" stroke-miterlimit="10" x1="1016.221" y1="198.424" x2="1087.087" y2="85.039"/>
<line fill="none" stroke="#000000" stroke-miterlimit="10" x1="1087.087" y1="85.039" x2="1566.143" y2="85.039"/>
<line fill="none" stroke="#CA2918" stroke-miterlimit="10" x1="987.876" y1="1332.284" x2="987.876" y2="198.424"/>
<line fill="none" stroke="#000000" stroke-miterlimit="10" x1="987.876" y1="1332.284" x2="1016.219" y2="1332.284"/>
<path fill="none" stroke="#000000" stroke-miterlimit="10" d="M1016.219,198.424"/>
<path fill="none" stroke="#000000" stroke-miterlimit="10" d="M987.875,198.424"/>
<line fill="none" stroke="#000000" stroke-miterlimit="10" x1="1685.195" y1="204.092" x2="1809.923" y2="328.818"/>
<line fill="none" stroke="#000000" stroke-miterlimit="10" x1="1566.143" y1="85.039" x2="1685.195" y2="204.092"/>
<path fill="none" stroke="#000000" stroke-miterlimit="10" d="M1016.244,198.441c-3.044,4.602-8.266,7.637-14.196,7.637
	c-5.933,0-11.156-3.037-14.199-7.643"/>
<line fill="none" stroke="#000000" stroke-miterlimit="10" x1="1724.884" y1="498.896" x2="1701.003" y2="562.787"/>
<path fill="none" stroke="#000000" stroke-miterlimit="10" d="M1724.816,498.898c17.348-28.873,48.972-48.191,85.106-48.191
	c36.136,0,67.76,19.319,85.106,48.191"/>
<path fill="none" stroke="#000000" stroke-miterlimit="10" d="M1701.003,562.787c-1.485,2.48-4.199,4.142-7.301,4.142
	c-4.696,0-8.504-3.808-8.504-8.504"/>
<line fill="none" stroke="#000000" stroke-miterlimit="10" x1="1965.828" y1="1224.567" x2="1965.828" y2="688.817"/>
<line fill="none" stroke="#000000" stroke-miterlimit="10" x1="1724.883" y1="498.897" x2="1685.197" y2="493.228"/>
<line fill="none" stroke="#CA2918" stroke-miterlimit="10" x1="1016.244" y1="198.441" x2="1682.362" y2="564.095"/>
<line fill="none" stroke="#000000" stroke-miterlimit="10" x1="1895.029" y1="498.898" x2="1965.828" y2="688.817"/>
<line fill="none" stroke="#000000" stroke-miterlimit="10" x1="987.877" y1="1332.284" x2="38.268" y2="1224.567"/>
<line fill="none" stroke="#CA2918" stroke-miterlimit="10" x1="194.176" y1="450.707" x2="194.176" y2="1241.577"/>
<line fill="none" stroke="#CA2918" stroke-miterlimit="10" x1="318.856" y1="493.227" x2="318.673" y2="202.104"/>
<line fill="none" stroke="#000000" stroke-miterlimit="10" x1="318.897" y1="558.425" x2="318.856" y2="493.227"/>
<line fill="none" stroke="#000000" stroke-miterlimit="10" x1="194.172" y1="450.707" x2="194.173" y2="328.818"/>
<line fill="none" stroke="#CA2918" stroke-miterlimit="10" x1="987.877" y1="198.424" x2="324.567" y2="198.424"/>
<line fill="none" stroke="#000000" stroke-miterlimit="10" x1="987.875" y1="198.424" x2="917.009" y2="85.039"/>
<line fill="none" stroke="#000000" stroke-miterlimit="10" x1="917.009" y1="85.039" x2="437.953" y2="85.039"/>
<line fill="none" stroke="#000000" stroke-miterlimit="10" x1="318.9" y1="204.092" x2="194.173" y2="328.818"/>
<line fill="none" stroke="#000000" stroke-miterlimit="10" x1="437.953" y1="85.039" x2="318.9" y2="204.092"/>
<line fill="none" stroke="#000000" stroke-miterlimit="10" x1="279.212" y1="498.896" x2="303.093" y2="562.787"/>
<path fill="none" stroke="#000000" stroke-miterlimit="10" d="M279.279,498.898c-17.348-28.873-48.972-48.191-85.106-48.191
	c-36.136,0-67.76,19.319-85.106,48.191"/>
<path fill="none" stroke="#000000" stroke-miterlimit="10" d="M303.093,562.787c1.485,2.48,4.199,4.142,7.301,4.142
	c4.696,0,8.504-3.808,8.504-8.504"/>
<line fill="none" stroke="#000000" stroke-miterlimit="10" x1="38.268" y1="1224.567" x2="38.268" y2="688.817"/>
<line fill="none" stroke="#000000" stroke-miterlimit="10" x1="279.213" y1="498.897" x2="318.898" y2="493.228"/>
<line fill="none" stroke="#CA2918" stroke-miterlimit="10" x1="987.852" y1="198.441" x2="321.733" y2="564.095"/>
<line fill="none" stroke="#000000" stroke-miterlimit="10" x1="109.066" y1="498.898" x2="38.268" y2="688.817"/>
</svg>
